<svg width="291" height="58" viewBox="0 0 291 58" fill="none" xmlns="http://www.w3.org/2000/svg">
  <path d="M75.8862 48.4126C72.6164 48.4126 69.9845 47.4157 67.9907 45.4219C65.9969 43.4167 65 40.6196 65 37.0308V23.4443H69.2212V37.0308C69.2212 39.4803 69.8364 41.3431 71.0669 42.6191C72.2974 43.8838 73.9038 44.5161 75.8862 44.5161C77.88 44.5161 79.4865 43.8838 80.7056 42.6191C81.9246 41.3545 82.5342 39.4917 82.5342 37.0308V23.4443H86.8066V37.0308C86.8066 38.8309 86.5389 40.4544 86.0034 41.9014C85.4679 43.3483 84.716 44.5446 83.7476 45.4902C82.7791 46.4359 81.6284 47.1593 80.2954 47.6606C78.9624 48.1619 77.4927 48.4126 75.8862 48.4126Z" fill="white"/>
  <path d="M103.896 48.4126C102.108 48.4126 100.444 48.105 98.9062 47.4897C97.3682 46.8631 96.0522 45.9972 94.9585 44.8921C93.8761 43.7869 93.0216 42.4425 92.395 40.8589C91.7798 39.2752 91.4722 37.5549 91.4722 35.6978C91.4722 33.214 92.002 31.0094 93.0615 29.084C94.1211 27.1471 95.5908 25.6489 97.4707 24.5894C99.362 23.5298 101.504 23 103.896 23C106.927 23 109.508 23.8488 111.638 25.5464C113.78 27.2326 115.187 29.4998 115.859 32.3481H111.382C110.789 30.6278 109.849 29.2891 108.562 28.332C107.286 27.3636 105.731 26.8794 103.896 26.8794C101.481 26.8794 99.5158 27.694 98.0005 29.3232C96.4966 30.9525 95.7446 33.0773 95.7446 35.6978C95.7446 38.3182 96.4966 40.443 98.0005 42.0723C99.5158 43.7015 101.481 44.5161 103.896 44.5161C105.731 44.5161 107.286 44.0376 108.562 43.0806C109.849 42.1235 110.789 40.7848 111.382 39.0645H115.859C115.187 41.9128 113.78 44.1857 111.638 45.8833C109.508 47.5695 106.927 48.4126 103.896 48.4126Z" fill="white"/>
  <path d="M142.964 47.9512H138.486L136.128 42.4482H124.336L121.995 47.9512H117.517L127.942 23.4443H132.522L142.964 47.9512ZM125.874 38.6714H134.59L130.317 28.6738H130.181L125.874 38.6714Z" fill="white"/>
  <path d="M146.758 47.9512V23.4443H156.67C158.447 23.4443 160.099 23.7349 161.626 24.3159C163.153 24.8856 164.469 25.6945 165.574 26.7427C166.69 27.7795 167.562 29.0669 168.188 30.605C168.815 32.1431 169.128 33.8407 169.128 35.6978C169.128 37.5549 168.815 39.2524 168.188 40.7905C167.562 42.3286 166.69 43.6217 165.574 44.6699C164.469 45.7067 163.153 46.5156 161.626 47.0967C160.099 47.6663 158.447 47.9512 156.67 47.9512H146.758ZM150.996 44.1401H156.67C159.108 44.1401 161.085 43.3882 162.6 41.8843C164.127 40.369 164.89 38.3068 164.89 35.6978C164.89 33.0887 164.127 31.0322 162.6 29.5283C161.085 28.0244 159.108 27.2725 156.67 27.2725H150.996V44.1401Z" fill="white"/>
  <path d="M175.4 48.2588C174.626 48.2588 173.993 48.0309 173.503 47.5752C173.014 47.1081 172.769 46.4871 172.769 45.7124C172.769 44.9491 173.014 44.3395 173.503 43.8838C173.993 43.4167 174.626 43.1831 175.4 43.1831C176.187 43.1831 176.819 43.4167 177.297 43.8838C177.776 44.3395 178.015 44.9491 178.015 45.7124C178.015 46.4985 177.776 47.1195 177.297 47.5752C176.819 48.0309 176.187 48.2588 175.4 48.2588Z" fill="#4209B0"/>
  <path d="M190.73 47.9512V27.3408H181.108V23.4443H204.59V27.3408H194.968V47.9512H190.73Z" fill="#087AFF"/>
  <path d="M213.477 37.1675V44.1401H228.84V47.9512H209.238V23.4443H228.84V27.2725H213.477V33.4248H227.234V37.1675H213.477Z" fill="#087AFF"/>
  <path d="M257.261 47.9512H252.783L250.425 42.4482H238.633L236.292 47.9512H231.814L242.239 23.4443H246.819L257.261 47.9512ZM240.171 38.6714H248.887L244.614 28.6738H244.478L240.171 38.6714Z" fill="#087AFF"/>
  <path d="M290.364 23.4443V47.9512H286.125V29.2207H285.989L277.341 47.9512H274.077L265.43 29.2207H265.293V47.9512H261.055V23.4443H267.292L275.649 41.5083H275.803L284.126 23.4443H290.364Z" fill="#087AFF"/>
  <path d="M3.05573 20.7456L22.6672 54.7137L23.5904 31.5353L3.05573 20.7456Z" fill="#087AFF"/>
  <path d="M46.6394 19.8686L25.558 54.7416L26.3912 31.5589L46.6394 19.8686Z" fill="#4209B0"/>
  <path d="M45.2996 17.5478L4.558 18.3684L25.0513 29.2381L45.2996 17.5478Z" fill="white"/>
</svg>
