<svg width="102" height="102" viewBox="0 0 102 102" fill="none" xmlns="http://www.w3.org/2000/svg">
  <path d="M0.782593 0.782715H5.5652V5.56532H0.782593V0.782715ZM5.5652 0.782715H10.3478V5.56532H5.5652V0.782715ZM10.3478 0.782715H15.1304V5.56532H10.3478V0.782715ZM15.1304 0.782715H19.913V5.56532H15.1304V0.782715ZM19.913 0.782715H24.6956V5.56532H19.913V0.782715ZM24.6956 0.782715H29.4782V5.56532H24.6956V0.782715ZM29.4782 0.782715H34.2609V5.56532H29.4782V0.782715ZM39.0435 0.782715H43.8261V5.56532H39.0435V0.782715ZM43.8261 0.782715H48.6087V5.56532H43.8261V0.782715ZM48.6087 0.782715H53.3913V5.56532H48.6087V0.782715ZM58.1739 0.782715H62.9565V5.56532H58.1739V0.782715ZM67.7391 0.782715H72.5217V5.56532H67.7391V0.782715ZM72.5217 0.782715H77.3043V5.56532H72.5217V0.782715ZM77.3043 0.782715H82.0869V5.56532H77.3043V0.782715ZM82.0869 0.782715H86.8696V5.56532H82.0869V0.782715ZM86.8696 0.782715H91.6522V5.56532H86.8696V0.782715ZM91.6522 0.782715H96.4348V5.56532H91.6522V0.782715ZM96.4348 0.782715H101.217V5.56532H96.4348V0.782715ZM0.782593 5.56532H5.5652V10.3479H0.782593V5.56532ZM29.4782 5.56532H34.2609V10.3479H29.4782V5.56532ZM43.8261 5.56532H48.6087V10.3479H43.8261V5.56532ZM67.7391 5.56532H72.5217V10.3479H67.7391V5.56532ZM96.4348 5.56532H101.217V10.3479H96.4348V5.56532ZM0.782593 10.3479H5.5652V15.1305H0.782593V10.3479ZM10.3478 10.3479H15.1304V15.1305H10.3478V10.3479ZM15.1304 10.3479H19.913V15.1305H15.1304V10.3479ZM19.913 10.3479H24.6956V15.1305H19.913V10.3479ZM29.4782 10.3479H34.2609V15.1305H29.4782V10.3479ZM39.0435 10.3479H43.8261V15.1305H39.0435V10.3479ZM43.8261 10.3479H48.6087V15.1305H43.8261V10.3479ZM53.3913 10.3479H58.1739V15.1305H53.3913V10.3479ZM67.7391 10.3479H72.5217V15.1305H67.7391V10.3479ZM77.3043 10.3479H82.0869V15.1305H77.3043V10.3479ZM82.0869 10.3479H86.8696V15.1305H82.0869V10.3479ZM86.8696 10.3479H91.6522V15.1305H86.8696V10.3479ZM96.4348 10.3479H101.217V15.1305H96.4348V10.3479ZM0.782593 15.1305H5.5652V19.9132H0.782593V15.1305ZM10.3478 15.1305H15.1304V19.9132H10.3478V15.1305ZM15.1304 15.1305H19.913V19.9132H15.1304V15.1305ZM19.913 15.1305H24.6956V19.9132H19.913V15.1305ZM29.4782 15.1305H34.2609V19.9132H29.4782V15.1305ZM39.0435 15.1305H43.8261V19.9132H39.0435V15.1305ZM43.8261 15.1305H48.6087V19.9132H43.8261V15.1305ZM53.3913 15.1305H58.1739V19.9132H53.3913V15.1305ZM58.1739 15.1305H62.9565V19.9132H58.1739V15.1305ZM67.7391 15.1305H72.5217V19.9132H67.7391V15.1305ZM77.3043 15.1305H82.0869V19.9132H77.3043V15.1305ZM82.0869 15.1305H86.8696V19.9132H82.0869V15.1305ZM86.8696 15.1305H91.6522V19.9132H86.8696V15.1305ZM96.4348 15.1305H101.217V19.9132H96.4348V15.1305ZM0.782593 19.9132H5.5652V24.6958H0.782593V19.9132ZM10.3478 19.9132H15.1304V24.6958H10.3478V19.9132ZM15.1304 19.9132H19.913V24.6958H15.1304V19.9132ZM19.913 19.9132H24.6956V24.6958H19.913V19.9132ZM29.4782 19.9132H34.2609V24.6958H29.4782V19.9132ZM48.6087 19.9132H53.3913V24.6958H48.6087V19.9132ZM58.1739 19.9132H62.9565V24.6958H58.1739V19.9132ZM67.7391 19.9132H72.5217V24.6958H67.7391V19.9132ZM77.3043 19.9132H82.0869V24.6958H77.3043V19.9132ZM82.0869 19.9132H86.8696V24.6958H82.0869V19.9132ZM86.8696 19.9132H91.6522V24.6958H86.8696V19.9132ZM96.4348 19.9132H101.217V24.6958H96.4348V19.9132ZM0.782593 24.6958H5.5652V29.4784H0.782593V24.6958ZM29.4782 24.6958H34.2609V29.4784H29.4782V24.6958ZM39.0435 24.6958H43.8261V29.4784H39.0435V24.6958ZM43.8261 24.6958H48.6087V29.4784H43.8261V24.6958ZM53.3913 24.6958H58.1739V29.4784H53.3913V24.6958ZM67.7391 24.6958H72.5217V29.4784H67.7391V24.6958ZM96.4348 24.6958H101.217V29.4784H96.4348V24.6958ZM0.782593 29.4784H5.5652V34.261H0.782593V29.4784ZM5.5652 29.4784H10.3478V34.261H5.5652V29.4784ZM10.3478 29.4784H15.1304V34.261H10.3478V29.4784ZM15.1304 29.4784H19.913V34.261H15.1304V29.4784ZM19.913 29.4784H24.6956V34.261H19.913V29.4784ZM24.6956 29.4784H29.4782V34.261H24.6956V29.4784ZM29.4782 29.4784H34.2609V34.261H29.4782V29.4784ZM39.0435 29.4784H43.8261V34.261H39.0435V29.4784ZM48.6087 29.4784H53.3913V34.261H48.6087V29.4784ZM58.1739 29.4784H62.9565V34.261H58.1739V29.4784ZM67.7391 29.4784H72.5217V34.261H67.7391V29.4784ZM72.5217 29.4784H77.3043V34.261H72.5217V29.4784ZM77.3043 29.4784H82.0869V34.261H77.3043V29.4784ZM82.0869 29.4784H86.8696V34.261H82.0869V29.4784ZM86.8696 29.4784H91.6522V34.261H86.8696V29.4784ZM91.6522 29.4784H96.4348V34.261H91.6522V29.4784ZM96.4348 29.4784H101.217V34.261H96.4348V29.4784ZM39.0435 34.261H43.8261V39.0436H39.0435V34.261ZM43.8261 34.261H48.6087V39.0436H43.8261V34.261ZM48.6087 34.261H53.3913V39.0436H48.6087V34.261ZM58.1739 34.261H62.9565V39.0436H58.1739V34.261ZM5.5652 39.0436H10.3478V43.8262H5.5652V39.0436ZM15.1304 39.0436H19.913V43.8262H15.1304V39.0436ZM24.6956 39.0436H29.4782V43.8262H24.6956V39.0436ZM29.4782 39.0436H34.2609V43.8262H29.4782V39.0436ZM34.2609 39.0436H39.0435V43.8262H34.2609V39.0436ZM39.0435 39.0436H43.8261V43.8262H39.0435V39.0436ZM53.3913 39.0436H58.1739V43.8262H53.3913V39.0436ZM58.1739 39.0436H62.9565V43.8262H58.1739V39.0436ZM62.9565 39.0436H67.7391V43.8262H62.9565V39.0436ZM67.7391 39.0436H72.5217V43.8262H67.7391V39.0436ZM72.5217 39.0436H77.3043V43.8262H72.5217V39.0436ZM82.0869 39.0436H86.8696V43.8262H82.0869V39.0436ZM86.8696 39.0436H91.6522V43.8262H86.8696V39.0436ZM96.4348 39.0436H101.217V43.8262H96.4348V39.0436ZM0.782593 43.8262H5.5652V48.6088H0.782593V43.8262ZM10.3478 43.8262H15.1304V48.6088H10.3478V43.8262ZM15.1304 43.8262H19.913V48.6088H15.1304V43.8262ZM39.0435 43.8262H43.8261V48.6088H39.0435V43.8262ZM53.3913 43.8262H58.1739V48.6088H53.3913V43.8262ZM62.9565 43.8262H67.7391V48.6088H62.9565V43.8262ZM72.5217 43.8262H77.3043V48.6088H72.5217V43.8262ZM77.3043 43.8262H82.0869V48.6088H77.3043V43.8262ZM82.0869 43.8262H86.8696V48.6088H82.0869V43.8262ZM91.6522 43.8262H96.4348V48.6088H91.6522V43.8262ZM0.782593 48.6088H5.5652V53.3914H0.782593V48.6088ZM10.3478 48.6088H15.1304V53.3914H10.3478V48.6088ZM15.1304 48.6088H19.913V53.3914H15.1304V48.6088ZM29.4782 48.6088H34.2609V53.3914H29.4782V48.6088ZM34.2609 48.6088H39.0435V53.3914H34.2609V48.6088ZM48.6087 48.6088H53.3913V53.3914H48.6087V48.6088ZM58.1739 48.6088H62.9565V53.3914H58.1739V48.6088ZM67.7391 48.6088H72.5217V53.3914H67.7391V48.6088ZM72.5217 48.6088H77.3043V53.3914H72.5217V48.6088ZM82.0869 48.6088H86.8696V53.3914H82.0869V48.6088ZM96.4348 48.6088H101.217V53.3914H96.4348V48.6088ZM0.782593 53.3914H5.5652V58.174H0.782593V53.3914ZM10.3478 53.3914H15.1304V58.174H10.3478V53.3914ZM15.1304 53.3914H19.913V58.174H15.1304V53.3914ZM34.2609 53.3914H39.0435V58.174H34.2609V53.3914ZM39.0435 53.3914H43.8261V58.174H39.0435V53.3914ZM43.8261 53.3914H48.6087V58.174H43.8261V53.3914ZM48.6087 53.3914H53.3913V58.174H48.6087V53.3914ZM53.3913 53.3914H58.1739V58.174H53.3913V53.3914ZM67.7391 53.3914H72.5217V58.174H67.7391V53.3914ZM82.0869 53.3914H86.8696V58.174H82.0869V53.3914ZM96.4348 53.3914H101.217V58.174H96.4348V53.3914ZM10.3478 58.174H15.1304V62.9566H10.3478V58.174ZM29.4782 58.174H34.2609V62.9566H29.4782V58.174ZM39.0435 58.174H43.8261V62.9566H39.0435V58.174ZM58.1739 58.174H62.9565V62.9566H58.1739V58.174ZM72.5217 58.174H77.3043V62.9566H72.5217V58.174ZM77.3043 58.174H82.0869V62.9566H77.3043V58.174ZM86.8696 58.174H91.6522V62.9566H86.8696V58.174ZM91.6522 58.174H96.4348V62.9566H91.6522V58.174ZM96.4348 58.174H101.217V62.9566H96.4348V58.174ZM39.0435 62.9566H43.8261V67.7392H39.0435V62.9566ZM43.8261 62.9566H48.6087V67.7392H43.8261V62.9566ZM48.6087 62.9566H53.3913V67.7392H48.6087V62.9566ZM62.9565 62.9566H67.7391V67.7392H62.9565V62.9566ZM67.7391 62.9566H72.5217V67.7392H67.7391V62.9566ZM72.5217 62.9566H77.3043V67.7392H72.5217V62.9566ZM82.0869 62.9566H86.8696V67.7392H82.0869V62.9566ZM91.6522 62.9566H96.4348V67.7392H91.6522V62.9566ZM0.782593 67.7392H5.5652V72.5218H0.782593V67.7392ZM5.5652 67.7392H10.3478V72.5218H5.5652V67.7392ZM10.3478 67.7392H15.1304V72.5218H10.3478V67.7392ZM15.1304 67.7392H19.913V72.5218H15.1304V67.7392ZM19.913 67.7392H24.6956V72.5218H19.913V67.7392ZM24.6956 67.7392H29.4782V72.5218H24.6956V67.7392ZM29.4782 67.7392H34.2609V72.5218H29.4782V67.7392ZM39.0435 67.7392H43.8261V72.5218H39.0435V67.7392ZM43.8261 67.7392H48.6087V72.5218H43.8261V67.7392ZM53.3913 67.7392H58.1739V72.5218H53.3913V67.7392ZM58.1739 67.7392H62.9565V72.5218H58.1739V67.7392ZM62.9565 67.7392H67.7391V72.5218H62.9565V67.7392ZM72.5217 67.7392H77.3043V72.5218H72.5217V67.7392ZM77.3043 67.7392H82.0869V72.5218H77.3043V67.7392ZM86.8696 67.7392H91.6522V72.5218H86.8696V67.7392ZM91.6522 67.7392H96.4348V72.5218H91.6522V67.7392ZM0.782593 72.5218H5.5652V77.3045H0.782593V72.5218ZM29.4782 72.5218H34.2609V77.3045H29.4782V72.5218ZM39.0435 72.5218H43.8261V77.3045H39.0435V72.5218ZM43.8261 72.5218H48.6087V77.3045H43.8261V72.5218ZM62.9565 72.5218H67.7391V77.3045H62.9565V72.5218ZM72.5217 72.5218H77.3043V77.3045H72.5217V72.5218ZM0.782593 77.3045H5.5652V82.0871H0.782593V77.3045ZM10.3478 77.3045H15.1304V82.0871H10.3478V77.3045ZM15.1304 77.3045H19.913V82.0871H15.1304V77.3045ZM19.913 77.3045H24.6956V82.0871H19.913V77.3045ZM29.4782 77.3045H34.2609V82.0871H29.4782V77.3045ZM48.6087 77.3045H53.3913V82.0871H48.6087V77.3045ZM53.3913 77.3045H58.1739V82.0871H53.3913V77.3045ZM58.1739 77.3045H62.9565V82.0871H58.1739V77.3045ZM62.9565 77.3045H67.7391V82.0871H62.9565V77.3045ZM67.7391 77.3045H72.5217V82.0871H67.7391V77.3045ZM72.5217 77.3045H77.3043V82.0871H72.5217V77.3045ZM86.8696 77.3045H91.6522V82.0871H86.8696V77.3045ZM91.6522 77.3045H96.4348V82.0871H91.6522V77.3045ZM0.782593 82.0871H5.5652V86.8697H0.782593V82.0871ZM10.3478 82.0871H15.1304V86.8697H10.3478V82.0871ZM15.1304 82.0871H19.913V86.8697H15.1304V82.0871ZM19.913 82.0871H24.6956V86.8697H19.913V82.0871ZM29.4782 82.0871H34.2609V86.8697H29.4782V82.0871ZM39.0435 82.0871H43.8261V86.8697H39.0435V82.0871ZM48.6087 82.0871H53.3913V86.8697H48.6087V82.0871ZM53.3913 82.0871H58.1739V86.8697H53.3913V82.0871ZM77.3043 82.0871H82.0869V86.8697H77.3043V82.0871ZM82.0869 82.0871H86.8696V86.8697H82.0869V82.0871ZM91.6522 82.0871H96.4348V86.8697H91.6522V82.0871ZM96.4348 82.0871H101.217V86.8697H96.4348V82.0871ZM0.782593 86.8697H5.5652V91.6523H0.782593V86.8697ZM10.3478 86.8697H15.1304V91.6523H10.3478V86.8697ZM15.1304 86.8697H19.913V91.6523H15.1304V86.8697ZM19.913 86.8697H24.6956V91.6523H19.913V86.8697ZM29.4782 86.8697H34.2609V91.6523H29.4782V86.8697ZM48.6087 86.8697H53.3913V91.6523H48.6087V86.8697ZM58.1739 86.8697H62.9565V91.6523H58.1739V86.8697ZM72.5217 86.8697H77.3043V91.6523H72.5217V86.8697ZM77.3043 86.8697H82.0869V91.6523H77.3043V86.8697ZM86.8696 86.8697H91.6522V91.6523H86.8696V86.8697ZM96.4348 86.8697H101.217V91.6523H96.4348V86.8697ZM0.782593 91.6523H5.5652V96.4349H0.782593V91.6523ZM29.4782 91.6523H34.2609V96.4349H29.4782V91.6523ZM39.0435 91.6523H43.8261V96.4349H39.0435V91.6523ZM48.6087 91.6523H53.3913V96.4349H48.6087V91.6523ZM62.9565 91.6523H67.7391V96.4349H62.9565V91.6523ZM67.7391 91.6523H72.5217V96.4349H67.7391V91.6523ZM72.5217 91.6523H77.3043V96.4349H72.5217V91.6523ZM77.3043 91.6523H82.0869V96.4349H77.3043V91.6523ZM82.0869 91.6523H86.8696V96.4349H82.0869V91.6523ZM0.782593 96.4349H5.5652V101.217H0.782593V96.4349ZM5.5652 96.4349H10.3478V101.217H5.5652V96.4349ZM10.3478 96.4349H15.1304V101.217H10.3478V96.4349ZM15.1304 96.4349H19.913V101.217H15.1304V96.4349ZM19.913 96.4349H24.6956V101.217H19.913V96.4349ZM24.6956 96.4349H29.4782V101.217H24.6956V96.4349ZM29.4782 96.4349H34.2609V101.217H29.4782V96.4349ZM53.3913 96.4349H58.1739V101.217H53.3913V96.4349ZM58.1739 96.4349H62.9565V101.217H58.1739V96.4349ZM77.3043 96.4349H82.0869V101.217H77.3043V96.4349ZM82.0869 96.4349H86.8696V101.217H82.0869V96.4349ZM91.6522 96.4349H96.4348V101.217H91.6522V96.4349Z" fill="white"/>
</svg>
