<svg width="54" height="54" viewBox="0 0 54 54" fill="none" xmlns="http://www.w3.org/2000/svg">
  <path opacity="0.3" d="M48.7406 37.5955C50.3478 34.3123 51.1773 30.6547 51.1831 26.9971H51.8974C51.8858 29.9578 51.3674 32.9126 50.3363 35.689C50.077 36.023 49.8293 36.3514 49.5586 36.6682C49.2821 36.985 49.0228 37.296 48.7406 37.5955ZM49.1841 37.4918C48.9076 37.8029 48.6138 38.0909 48.3373 38.3846C47.7555 39.456 47.1045 40.487 46.3787 41.4662C45.6413 42.4397 44.8406 43.3555 43.9765 44.2138L44.4777 44.7206C46.8396 42.3994 48.729 39.6 49.9964 36.5357C49.7371 36.864 49.4549 37.1808 49.1841 37.4918ZM47.5135 38.6496C48.5332 36.8928 49.2821 34.9862 49.8178 33.0278C50.3362 31.0637 50.584 29.0304 50.5955 26.9971H49.38C49.3685 28.9267 49.1323 30.8563 48.6369 32.7168C48.1357 34.5715 47.4214 36.3802 46.4536 38.0506L47.5135 38.6496ZM38.8496 47.3933C39.2989 47.1514 39.7137 46.8576 40.1457 46.5869C40.3531 46.4429 40.5605 46.2931 40.7679 46.1491L41.0789 45.9302C41.1826 45.8554 41.2806 45.7747 41.3785 45.6941L41.9776 45.2218L42.5537 44.7264L42.8417 44.4787L43.1182 44.2138L43.6712 43.6896L44.1954 43.1366L44.4604 42.8602L44.7081 42.5722L45.2093 41.9962L45.6817 41.3971L45.9179 41.0976L46.1368 40.7866L46.5803 40.1645L46.9893 39.5251C47.0585 39.4157 47.1276 39.312 47.1967 39.2026L47.3868 38.8742L46.3384 38.2637L46.1598 38.5747C46.0964 38.6784 46.0273 38.7763 45.9639 38.88L45.5722 39.4906L45.1517 40.0781L44.9443 40.3718L44.7197 40.6541L44.2761 41.2243L43.8037 41.7715L43.5675 42.0422L43.3198 42.3014L42.8186 42.8256L42.2944 43.3267L42.0294 43.5744L41.7529 43.8106L41.2057 44.2829L40.6354 44.7264C40.5374 44.8013 40.4453 44.8762 40.3473 44.951L40.0536 45.1584C39.8577 45.2966 39.6618 45.4406 39.466 45.5731C39.057 45.8266 38.6595 46.1088 38.239 46.3334L38.8496 47.3933ZM27 50.5901C29.0335 50.5786 31.067 50.3251 33.0314 49.8125C34.99 49.2826 36.8967 48.528 38.6537 47.5085L38.0546 46.4544C36.384 47.4221 34.581 48.1306 32.7203 48.6374C30.8596 49.127 28.9298 49.3632 27 49.3805V50.5901ZM53.9482 28.6445C53.977 28.3738 53.9712 28.0973 53.9827 27.8208L54 26.9971H52.485L52.4677 27.7747C52.4619 28.0339 52.4619 28.2931 52.4331 28.5523L53.9482 28.6445ZM53.7523 30.6202L53.856 29.8022C53.879 29.5315 53.9021 29.255 53.9194 28.9786L52.4101 28.8691L52.3467 29.6467L52.2488 30.4186L53.7523 30.6202ZM53.4239 32.5728C53.4873 32.3078 53.5276 32.0314 53.5737 31.7606C53.6198 31.4899 53.6774 31.2192 53.712 30.9485L52.2142 30.7296C52.1854 30.9888 52.1278 31.2422 52.0875 31.4957C52.0414 31.7491 52.0011 32.0083 51.9435 32.2618L53.4239 32.5728ZM52.94 34.4966C53.0149 34.2317 53.0898 33.9667 53.1647 33.7018L53.349 32.9011L51.8686 32.5728L51.6958 33.3331L51.4826 34.0819L52.94 34.4966ZM52.3237 36.3859C52.4216 36.1267 52.5022 35.8675 52.5944 35.6083C52.6808 35.3491 52.7788 35.0899 52.8479 34.825L51.3962 34.3872C51.3328 34.6406 51.2349 34.8826 51.1543 35.1245C51.0678 35.3722 50.993 35.6198 50.9008 35.8618L52.3237 36.3859ZM51.5575 38.2176C51.6727 37.9642 51.7879 37.7165 51.8916 37.463L52.1969 36.697L50.7856 36.1498L50.4975 36.8755C50.3939 37.1117 50.2844 37.3478 50.1807 37.584L51.5575 38.2176ZM50.6704 39.9917C50.8086 39.7555 50.9238 39.5021 51.0506 39.2602C51.1715 39.0125 51.3098 38.7763 51.4192 38.5229L50.0482 37.8778C49.9445 38.1139 49.8178 38.3443 49.7026 38.5747C49.5816 38.8051 49.4722 39.0413 49.3397 39.2659L50.6704 39.9917ZM49.6507 41.6909L50.0943 40.9939L50.5033 40.2797L49.1841 39.5309L48.7982 40.2048L48.3776 40.8614L49.6507 41.6909ZM48.5101 43.3152C48.683 43.1021 48.8327 42.8717 48.994 42.647C49.1496 42.4224 49.3166 42.2035 49.4664 41.9731L48.2048 41.1322C48.0666 41.351 47.9053 41.5584 47.7613 41.7715C47.6057 41.9789 47.4675 42.1978 47.3004 42.3994L48.5101 43.3152ZM27 54C31.0728 53.9942 35.1628 53.0669 38.8323 51.2755C40.6642 50.377 42.3924 49.271 43.9823 47.9923C45.5722 46.7194 47.0009 45.239 48.2624 43.6378L47.07 42.7046C45.8775 44.2195 44.5353 45.6134 43.0318 46.8115C41.534 48.0211 39.898 49.0637 38.1698 49.9104C34.7077 51.6038 30.8538 52.4794 27.0058 52.4851V54H27ZM43.8095 45.36L44.2991 44.8934L43.8325 44.4096L43.3601 44.8646L43.8095 45.36ZM43.1816 45.913L43.6885 45.4694L43.2392 44.9683L42.7438 45.4003L43.1816 45.913ZM42.5306 46.4486C42.7092 46.3104 42.882 46.1722 43.0548 46.0224L42.6228 45.5098C42.4615 45.6538 42.2887 45.792 42.1159 45.9245L42.5306 46.4486ZM41.8739 46.9613L42.4039 46.5466L41.9891 46.0166L41.4707 46.4198L41.8739 46.9613ZM41.1884 47.4509L41.7356 47.0592L41.3382 46.5178L40.8024 46.8979L41.1884 47.4509ZM40.4914 47.9174C40.6815 47.7907 40.8716 47.6813 41.0559 47.5488L40.6757 46.9958C40.5029 47.1283 40.307 47.2378 40.1284 47.3587L40.4914 47.9174ZM39.7828 48.361C39.9787 48.2515 40.163 48.119 40.3531 48.0038L39.9902 47.4394C39.8058 47.5546 39.6273 47.6813 39.4314 47.785L39.7828 48.361ZM39.057 48.7814L39.6446 48.4474L39.3047 47.8656L38.7344 48.1939L39.057 48.7814ZM38.3138 49.1731C38.5155 49.0694 38.7171 48.9715 38.913 48.8621L38.5904 48.2746C38.4003 48.3782 38.1986 48.4762 38.0085 48.5741L38.3138 49.1731ZM37.5592 49.5418C37.7666 49.4554 37.9624 49.3459 38.1641 49.248L37.8645 48.649C37.6687 48.7469 37.4786 48.8506 37.2769 48.937L37.5592 49.5418ZM36.793 49.8874L37.4094 49.6109L37.1272 49.0003L36.5281 49.271L36.793 49.8874ZM36.0154 50.2042L36.6433 49.9565L36.384 49.3344L35.7734 49.5763L36.0154 50.2042ZM35.2319 50.4922L35.5488 50.3827L35.8656 50.2618L35.6236 49.6339L35.3183 49.7549L35.0073 49.8586L35.2319 50.4922ZM34.437 50.7629L35.0764 50.544L34.8575 49.9104L34.2353 50.1235L34.437 50.7629ZM33.6305 50.9933L34.2814 50.809L34.0856 50.1638L33.4519 50.3424L33.6305 50.9933ZM32.8182 51.2006C33.0371 51.1488 33.256 51.1027 33.4749 51.0336L33.3021 50.3827C33.0947 50.4461 32.8816 50.4922 32.6684 50.544L32.8182 51.2006ZM32.0002 51.3907L32.6569 51.241L32.5072 50.5843L31.8677 50.7283L32.0002 51.3907ZM31.1764 51.5405L31.8389 51.4195L31.7064 50.7571L31.0612 50.8723L31.1764 51.5405ZM30.3469 51.6614C30.5716 51.6326 30.7962 51.6096 31.0151 51.5635L30.9057 50.9011C30.6925 50.9472 30.4737 50.9645 30.2547 50.9933L30.3469 51.6614ZM29.5116 51.7651L30.1799 51.6845L30.0934 51.0163L29.4425 51.097L29.5116 51.7651ZM28.6763 51.8285L29.3503 51.7766L29.287 51.1085L28.6303 51.1603L28.6763 51.8285ZM27.8353 51.8746C28.06 51.8688 28.2846 51.8688 28.5093 51.8458L28.469 51.1718C28.2501 51.1949 28.0311 51.1949 27.8122 51.2006L27.8353 51.8746ZM27 51.8918L27.674 51.8746L27.6567 51.2006L27 51.2179V51.8918ZM17.3279 49.5533C17.6448 49.8182 17.9789 50.0659 18.3072 50.3309C21.0838 51.3619 24.039 51.8861 27 51.8918V51.1776C23.342 51.1718 19.6898 50.3424 16.4005 48.7354C16.7 49.0176 17.0169 49.2826 17.3279 49.5533ZM16.5099 49.1846C16.1988 48.9082 15.9108 48.6144 15.617 48.3379C14.5456 47.7562 13.5144 47.1053 12.5351 46.3795C11.5616 45.6422 10.6456 44.8416 9.78728 43.9776L9.28035 44.4787C11.6019 46.8403 14.4015 48.7296 17.4662 49.9968C17.1321 49.7376 16.821 49.4496 16.5099 49.1846ZM15.3463 47.5085C17.1033 48.528 19.01 49.2768 20.9686 49.8125C22.933 50.3309 24.9665 50.5786 27 50.5901V49.3747C25.0702 49.3632 23.1404 49.127 21.2797 48.6317C19.4248 48.1306 17.616 47.4163 15.9454 46.4486L15.3463 47.5085ZM6.60166 38.8512C6.84361 39.3005 7.1374 39.7152 7.40815 40.1472C7.55217 40.3546 7.70194 40.5619 7.84596 40.7693L8.06486 41.0803C8.13975 41.184 8.2204 41.2819 8.30105 41.3798L8.77342 41.9789L9.26883 42.5549L9.51654 42.8429L9.78152 43.1194L10.3057 43.6723L10.8588 44.1965L11.1353 44.4614L11.4233 44.7091L11.9994 45.2102L12.5985 45.6826L12.898 45.9187L13.2091 46.1376L13.8312 46.5811L14.4707 46.9901C14.5801 47.0592 14.6838 47.1283 14.7933 47.1974L15.1216 47.3875L15.7322 46.3392L15.4212 46.1606C15.3175 46.0973 15.2195 46.0282 15.1159 45.9648L14.5052 45.5731L13.9176 45.1526L13.6239 44.9453L13.3416 44.7206L12.7713 44.2771L12.224 43.8048L11.9533 43.5686L11.694 43.321L11.1698 42.8198L10.6687 42.2957L10.421 42.0307L10.1848 41.76L9.7124 41.2128L9.26883 40.6426C9.19394 40.5446 9.11905 40.4525 9.04416 40.3546L8.83678 40.0608C8.69853 39.865 8.55451 39.6691 8.42202 39.4733C8.16855 39.0643 7.88628 38.6726 7.66162 38.2464L6.60166 38.8512ZM3.40453 27.0029C3.41605 29.0362 3.66951 31.0694 4.18221 33.0336C4.71218 34.992 5.46682 36.8986 6.48645 38.6554L7.54065 38.0563C6.57286 36.3859 5.86431 34.583 5.35737 32.7226C4.86772 30.8621 4.63154 28.9325 4.61425 27.0029H3.40453ZM25.3525 53.9424C25.6232 53.9712 25.8997 53.9654 26.1762 53.977L27 53.9942V52.4794L26.2223 52.4621C25.9631 52.4506 25.7039 52.4563 25.4446 52.4275L25.3525 53.9424ZM23.3823 53.7523L24.2003 53.856C24.4711 53.879 24.7476 53.9021 25.0241 53.9194L25.1336 52.4102L24.3559 52.3469L23.584 52.249L23.3823 53.7523ZM21.4237 53.4182C21.6945 53.4816 21.9652 53.5219 22.236 53.568C22.5067 53.6141 22.7775 53.6717 23.0482 53.7062L23.2671 52.2086C23.0079 52.1798 22.7544 52.1222 22.501 52.0819C22.2475 52.0358 21.9883 51.9955 21.7348 51.9379L21.4237 53.4182ZM19.4997 52.9344C19.7647 53.0093 20.0297 53.0842 20.2946 53.159L21.0954 53.3434L21.4237 51.863L20.6633 51.6902L19.9144 51.4771L19.4997 52.9344ZM17.616 52.3181C17.8752 52.416 18.1344 52.4966 18.3936 52.5888C18.6529 52.6752 18.9121 52.7731 19.1771 52.8422L19.6149 51.3907C19.3614 51.3274 19.1195 51.2294 18.8775 51.1488C18.6298 51.0624 18.3821 50.9875 18.1402 50.8954L17.616 52.3181ZM15.7841 51.5578C16.0376 51.673 16.2853 51.7882 16.5387 51.8918L17.3049 52.1971L17.8521 50.7859L17.1263 50.4979C16.8901 50.3942 16.6539 50.2848 16.4178 50.1811L15.7841 51.5578ZM14.0098 50.6707C14.246 50.809 14.4995 50.9242 14.7414 51.0509C14.9891 51.1718 15.2253 51.3101 15.4788 51.4195L16.124 50.0486C15.8878 49.945 15.6573 49.8182 15.4269 49.703C15.1965 49.5821 14.9603 49.4726 14.7357 49.3402L14.0098 50.6707ZM12.3104 49.6454L13.0075 50.089L13.7218 50.4979L14.4707 49.1789L13.7967 48.793L13.14 48.3725L12.3104 49.6454ZM10.6859 48.5107C10.8991 48.6835 11.1295 48.8333 11.3542 48.9946C11.5788 49.1501 11.7977 49.3171 12.0282 49.4669L12.8692 48.2054C12.6503 48.0672 12.4429 47.9059 12.2298 47.7619C12.0224 47.6064 11.8035 47.4682 11.6019 47.3011L10.6859 48.5107ZM0 27.0029C0.00576061 31.0752 0.933222 35.1648 2.72477 38.8339C3.62343 40.6656 4.72946 42.3936 6.00832 43.9834C7.28142 45.5731 8.76189 47.0016 10.3633 48.263L11.2966 47.0707C9.78152 45.8784 8.39322 44.5363 7.18925 43.033C5.97952 41.5354 4.93685 39.8995 4.09004 38.1715C2.39641 34.7098 1.5208 30.8563 1.51504 27.0086H0V27.0029ZM8.64092 43.8106L9.10753 44.3002L9.59142 43.8336L9.13633 43.3613L8.64092 43.8106ZM8.0879 43.177L8.53147 43.6838L9.03264 43.2346L8.6006 42.7392L8.0879 43.177ZM7.55217 42.5318C7.69042 42.7104 7.82867 42.8832 7.97845 43.056L8.49114 42.624C8.34713 42.4627 8.20888 42.2899 8.07638 42.1171L7.55217 42.5318ZM7.03371 41.8694L7.44847 42.3994L7.97845 41.9846L7.57521 41.4662L7.03371 41.8694ZM6.54982 41.1898L6.94154 41.737L7.48304 41.3395L7.10284 40.8038L6.54982 41.1898ZM6.08321 40.4928C6.20994 40.6829 6.31939 40.873 6.45189 41.0573L7.00491 40.6771C6.87242 40.5043 6.76296 40.3085 6.64199 40.1299L6.08321 40.4928ZM5.63388 39.7786C5.74333 39.9744 5.87583 40.1587 5.99104 40.3488L6.55558 39.9859C6.44037 39.8016 6.31363 39.623 6.20994 39.4272L5.63388 39.7786ZM5.21336 39.0528L5.54747 39.6403L6.12929 39.3005L5.80094 38.7302L5.21336 39.0528ZM4.82164 38.3098C4.92533 38.5114 5.02326 38.713 5.13271 38.9088L5.72029 38.5862C5.6166 38.3962 5.51867 38.2003 5.42074 38.0045L4.82164 38.3098ZM4.45296 37.561C4.53937 37.7683 4.64881 37.9642 4.74675 38.1658L5.34585 37.8662C5.24792 37.6704 5.14423 37.4803 5.05782 37.2787L4.45296 37.561ZM4.10732 36.7949L4.38383 37.4112L4.99445 37.129L4.7237 36.5299L4.10732 36.7949ZM3.79625 36.0173L4.04395 36.6451L4.6661 36.3859L4.42415 35.7754L3.79625 36.0173ZM3.50245 35.2282L3.61191 35.545L3.73288 35.8618L4.36079 35.6198L4.23981 35.3203L4.13612 35.0093L3.50245 35.2282ZM3.2317 34.4333L3.45061 35.0726L4.08428 34.8538L3.87113 34.2317L3.2317 34.4333ZM3.00128 33.6269L3.18562 34.2778L3.83081 34.0819L3.65223 33.4483L3.00128 33.6269ZM2.7939 32.8147C2.84574 33.0336 2.89183 33.2525 2.96096 33.4714L3.61191 33.2986C3.54854 33.0912 3.50245 32.8781 3.45061 32.665L2.7939 32.8147ZM2.6038 32.0026L2.75357 32.6592L3.41028 32.5094L3.26627 31.8701L2.6038 32.0026ZM2.45978 31.1731L2.58076 31.8355L3.24322 31.703L3.12801 31.0579L2.45978 31.1731ZM2.33305 30.3437C2.36185 30.5683 2.3849 30.793 2.43098 31.0118L3.09345 30.9024C3.04737 30.6893 3.03008 30.4704 3.00128 30.2515L2.33305 30.3437ZM2.22936 29.5142L2.31001 30.1824L2.97824 30.096L2.89759 29.4451L2.22936 29.5142ZM2.16599 28.6733L2.21784 29.3472L2.88607 29.2838L2.83422 28.6272L2.16599 28.6733ZM2.12567 27.8381C2.13143 28.0627 2.13143 28.2874 2.15447 28.512L2.82846 28.4717C2.80542 28.2528 2.80542 28.0339 2.79966 27.815L2.12567 27.8381ZM2.10263 27.0029L2.11991 27.6768L2.7939 27.6595L2.77662 27.0029H2.10263ZM4.44143 17.3318C4.17645 17.6486 3.92874 17.9827 3.66375 18.311C2.6326 21.0874 2.10839 24.0422 2.10263 27.0029H2.81694C2.8227 23.3453 3.65223 19.6934 5.25944 16.4045C4.97717 16.704 4.71794 17.015 4.44143 17.3318ZM4.81011 16.5082C5.08662 16.1971 5.38041 15.9091 5.65692 15.6154C6.23875 14.544 6.8897 13.513 7.61553 12.5338C8.35289 11.5603 9.15362 10.6445 10.0177 9.78624L9.51654 9.27936C7.15469 11.6006 5.2652 14.4 3.99787 17.4643C4.26286 17.136 4.54512 16.825 4.81011 16.5082ZM6.48645 15.3504C5.46682 17.1072 4.71794 19.0138 4.18221 20.9722C3.66375 22.9363 3.41605 24.9696 3.40453 27.0029H4.62002C4.63154 25.0733 4.86772 23.1437 5.36313 21.2832C5.8643 19.4285 6.57862 17.6198 7.5464 15.9494L6.48645 15.3504ZM15.1447 6.60672C14.6953 6.84864 14.2806 7.1424 13.8485 7.41312C13.6411 7.55712 13.4338 7.70688 13.2264 7.85088L12.9153 8.06976C12.8116 8.14464 12.7137 8.22528 12.6157 8.30592L12.0166 8.77824L11.4406 9.2736L11.1525 9.52128L10.876 9.78624L10.323 10.3104L9.79881 10.8634L9.53382 11.1398L9.28611 11.4278L8.78494 12.0038L8.31257 12.6029L8.07638 12.9024L7.85748 13.2134L7.41391 13.8355L7.00491 14.4749C6.93578 14.5843 6.86665 14.688 6.79753 14.7974L6.60743 15.1258L7.65586 15.7363L7.83443 15.4253C7.8978 15.3216 7.96693 15.2237 8.0303 15.12L8.42202 14.5094L8.8483 13.9219L9.05569 13.6282L9.28035 13.3459L9.72392 12.7757L10.1963 12.2285L10.4325 11.9578L10.6802 11.6986L11.1814 11.1744L11.7056 10.6733L11.9706 10.4256L12.2413 10.1894L12.7886 9.71712L13.3589 9.2736C13.4568 9.19872 13.549 9.12384 13.6469 9.04896L13.9407 8.8416C14.1365 8.70336 14.3324 8.55936 14.5283 8.42688C14.9373 8.17344 15.329 7.8912 15.7553 7.66656L15.1447 6.60672ZM27 3.40992C24.9665 3.42144 22.933 3.67488 20.9686 4.18752C19.01 4.71744 17.1033 5.472 15.3463 6.49152L15.9454 7.5456C17.616 6.57792 19.419 5.86944 21.2797 5.36256C23.1404 4.87296 25.0702 4.6368 27 4.61952V3.40992ZM0.0518478 25.3555C0.0230447 25.6262 0.0288024 25.9027 0.0172811 26.1792L0 27.0029H1.51504L1.53233 26.2253C1.54385 25.9661 1.53808 25.7069 1.56689 25.4477L0.0518478 25.3555ZM0.247707 23.3798L0.144015 24.1978C0.120973 24.4685 0.0979301 24.745 0.0806483 25.0214L1.58993 25.1309L1.64754 24.3533L1.74547 23.5814L0.247707 23.3798ZM0.576061 21.4272C0.512695 21.6979 0.472369 21.9686 0.426284 22.2394C0.380199 22.5101 0.322594 22.7808 0.288031 23.0515L1.78579 23.2704C1.81459 23.0112 1.8722 22.7578 1.91252 22.5043C1.95861 22.2509 1.99893 21.9917 2.05654 21.7382L0.576061 21.4272ZM1.05996 19.5034C0.985067 19.7683 0.910175 20.0333 0.835287 20.2982L0.650948 21.0989L2.13143 21.4272L2.30425 20.6669L2.51739 19.9181L1.05996 19.5034ZM1.67634 17.6141C1.57841 17.8733 1.49776 18.1325 1.40559 18.3917C1.31918 18.6509 1.22125 18.9101 1.15212 19.175L2.6038 19.6128C2.66717 19.3594 2.7651 19.1174 2.84574 18.8755C2.93215 18.6278 3.00704 18.3802 3.09921 18.1382L1.67634 17.6141ZM2.4425 15.7824C2.32729 16.0358 2.21208 16.2835 2.10839 16.537L1.80307 17.303L3.21442 17.8502L3.50245 17.1245C3.60615 16.8883 3.71559 16.6522 3.81929 16.416L2.4425 15.7824ZM3.32963 14.0083C3.19138 14.2445 3.07617 14.4979 2.94944 14.7398C2.82846 14.9875 2.69021 15.2237 2.58076 15.4771L3.95178 16.1222C4.05547 15.8861 4.18221 15.6557 4.29742 15.4253C4.41839 15.1949 4.52784 14.9587 4.66034 14.7341L3.32963 14.0083ZM4.34927 12.3091L3.9057 13.0061L3.49669 13.7203L4.81587 14.4691L5.20183 13.7952L5.62236 13.1386L4.34927 12.3091ZM5.48986 10.6848C5.31705 10.8979 5.16727 11.1283 5.00598 11.353C4.85044 11.5776 4.68338 11.7965 4.53361 12.0269L5.79518 12.8678C5.93343 12.649 6.09473 12.4416 6.23875 12.2285C6.39428 12.0211 6.53254 11.8022 6.69959 11.6006L5.48986 10.6848ZM27 0C22.9272 0.00576 18.8372 0.933118 15.1677 2.72448C13.3358 3.62304 11.6076 4.72896 10.0177 6.00768C8.42778 7.28064 6.99915 8.76096 5.73757 10.3622L6.93002 11.2954C8.12247 9.78048 9.46469 8.38656 10.9682 7.18848C12.466 5.97888 14.102 4.93632 15.8302 4.0896C19.2923 2.39616 23.1461 1.52064 26.9942 1.51488V0H27ZM10.1905 8.64L9.70088 9.10656L10.1675 9.5904L10.6399 9.13536L10.1905 8.64ZM10.8184 8.08704L10.3115 8.53056L10.7608 9.03168L11.2562 8.59968L10.8184 8.08704ZM11.4636 7.55136C11.285 7.6896 11.1122 7.82784 10.9394 7.9776L11.3715 8.49024C11.5327 8.34624 11.7056 8.208 11.8784 8.07552L11.4636 7.55136ZM12.1261 7.03872L11.5961 7.45344L12.0109 7.98336L12.5293 7.58016L12.1261 7.03872ZM12.8116 6.54912L12.2643 6.9408L12.6618 7.48224L13.1976 7.10208L12.8116 6.54912ZM13.5086 6.08256C13.3185 6.20928 13.1284 6.31872 12.9441 6.4512L13.3243 7.00416C13.4971 6.87168 13.693 6.76224 13.8716 6.64128L13.5086 6.08256ZM14.2172 5.63904C14.0213 5.74848 13.837 5.88096 13.6469 5.99616L14.0098 6.56064C14.1942 6.44544 14.3727 6.31872 14.5686 6.21504L14.2172 5.63904ZM14.943 5.21856L14.3554 5.55264L14.6953 6.1344L15.2656 5.80608L14.943 5.21856ZM15.6862 4.82688C15.4845 4.93056 15.2829 5.02848 15.0871 5.13792L15.4096 5.72544C15.5997 5.62176 15.8014 5.52384 15.9915 5.42592L15.6862 4.82688ZM16.4408 4.45824C16.2334 4.54464 16.0375 4.65408 15.8359 4.752L16.1355 5.35104C16.3313 5.25312 16.5214 5.14944 16.7231 5.06304L16.4408 4.45824ZM17.2012 4.11264L16.5848 4.38912L16.8671 4.99968L17.4662 4.72896L17.2012 4.11264ZM17.9789 3.79584L17.351 4.04352L17.6102 4.6656L18.2208 4.42368L17.9789 3.79584ZM18.7681 3.50784L18.4512 3.61728L18.1402 3.73824L18.3821 4.36608L18.6874 4.24512L18.9985 4.14144L18.7681 3.50784ZM19.563 3.23712L18.9236 3.456L19.1425 4.0896L19.7647 3.87648L19.563 3.23712ZM20.3695 3.00672L19.7186 3.19104L19.9144 3.83616L20.5481 3.6576L20.3695 3.00672ZM21.1818 2.79936C20.9629 2.8512 20.744 2.89728 20.5251 2.9664L20.6979 3.61728C20.9053 3.55392 21.1184 3.50784 21.3316 3.456L21.1818 2.79936ZM21.9998 2.60928L21.3431 2.75904L21.4929 3.41568L22.1323 3.26592L21.9998 2.60928ZM22.8236 2.45952L22.1611 2.58048L22.2936 3.24288L22.9388 3.12768L22.8236 2.45952ZM23.6531 2.33856C23.4284 2.36736 23.2038 2.3904 22.9849 2.43648L23.0943 3.09888C23.3074 3.0528 23.5264 3.03552 23.7453 3.00672L23.6531 2.33856ZM24.4884 2.23488L23.8201 2.31552L23.9065 2.98368L24.5575 2.90304L24.4884 2.23488ZM25.3237 2.17152L24.6497 2.22336L24.713 2.89152L25.3697 2.83968L25.3237 2.17152ZM26.159 2.12544C25.9343 2.1312 25.7096 2.1312 25.485 2.15424L25.5253 2.82816C25.7442 2.80512 25.9631 2.80512 26.182 2.79936L26.159 2.12544ZM27 2.10816L26.326 2.12544L26.3433 2.79936L27 2.78208V2.10816ZM36.6721 4.44672C36.3552 4.18176 36.0211 3.93408 35.6928 3.66912C32.9162 2.63808 29.961 2.11392 27 2.10816V2.8224C30.658 2.82816 34.3102 3.6576 37.5995 5.26464C37.3 4.9824 36.9831 4.71744 36.6721 4.44672ZM37.4901 4.81536C37.8012 5.09184 38.0892 5.3856 38.383 5.66208C39.4544 6.24384 40.4856 6.89472 41.4649 7.62048C42.4384 8.35776 43.3544 9.1584 44.2127 10.0224L44.7197 9.52128C42.3981 7.15968 39.5985 5.2704 36.5338 4.0032C36.8679 4.2624 37.179 4.5504 37.4901 4.81536ZM38.6537 6.49152C36.8967 5.472 34.99 4.7232 33.0314 4.18752C31.067 3.66912 29.0335 3.42144 27 3.40992V4.62528C28.9298 4.6368 30.8596 4.87296 32.7203 5.36832C34.5752 5.86944 36.384 6.58368 38.0546 7.55136L38.6537 6.49152ZM47.3983 15.1488C47.1564 14.6995 46.8626 14.2848 46.5919 13.8528C46.4478 13.6454 46.2981 13.4381 46.154 13.2307L45.9351 12.9197C45.8603 12.816 45.7796 12.7181 45.699 12.6202L45.2266 12.0211L44.7312 11.4451L44.4835 11.1571L44.2185 10.8806L43.6943 10.3277L43.1412 9.80352L42.8647 9.53856L42.5767 9.29088L42.0006 8.78976L41.4015 8.31744L41.102 8.08128L40.7909 7.8624L40.1688 7.41888L39.5293 7.00992C39.4199 6.9408 39.3162 6.87168 39.2067 6.80256L38.8784 6.61248L38.2678 7.6608L38.5788 7.83936C38.6825 7.90272 38.7805 7.97184 38.8841 8.0352L39.4948 8.42688L40.0824 8.84736L40.3761 9.05472L40.6584 9.27936L41.2287 9.72288L41.776 10.1952L42.0467 10.4314L42.306 10.679L42.8302 11.1802L43.3313 11.7043L43.579 11.9693L43.8152 12.24L44.2876 12.7872L44.7312 13.3574C44.8061 13.4554 44.8809 13.5475 44.9558 13.6454L45.1632 13.9392C45.3015 14.135 45.4455 14.3309 45.578 14.5267C45.8314 14.9357 46.1137 15.3331 46.3384 15.7536L47.3983 15.1488ZM50.5955 27.0029C50.584 24.9696 50.3305 22.9363 49.8178 20.9722C49.2878 19.0138 48.5332 17.1072 47.5135 15.3504L46.4594 15.9494C47.4271 17.6198 48.1357 19.4227 48.6426 21.2832C49.1323 23.1437 49.3685 25.0733 49.3857 27.0029H50.5955ZM28.6418 0.0575991C28.371 0.0287991 28.0945 0.0345605 27.818 0.0230405L26.9942 0.00576123V1.52064L27.7719 1.53792C28.0311 1.54944 28.2904 1.54368 28.5496 1.57248L28.6418 0.0575991ZM30.6177 0.24768L29.7997 0.144C29.5289 0.12096 29.2524 0.0979196 28.9759 0.0806396L28.8664 1.58976L29.6441 1.65312L30.416 1.75104L30.6177 0.24768ZM32.5763 0.581761C32.3055 0.518401 32.0348 0.47808 31.764 0.432C31.4933 0.38592 31.2225 0.328321 30.9518 0.293761L30.7329 1.79136C30.9921 1.82016 31.2456 1.87776 31.499 1.91808C31.7525 1.96416 32.0117 2.00448 32.2652 2.06208L32.5763 0.581761ZM34.5003 1.0656C34.2353 0.990719 33.9703 0.915839 33.7054 0.840959L32.9046 0.65664L32.5763 2.13696L33.3367 2.30976L34.0856 2.52288L34.5003 1.0656ZM36.384 1.68192C36.1248 1.584 35.8656 1.50336 35.6064 1.4112C35.3471 1.3248 35.0879 1.22688 34.8229 1.15776L34.3851 2.60928C34.6386 2.67264 34.8805 2.77056 35.1225 2.8512C35.3702 2.9376 35.6179 3.01248 35.8598 3.10464L36.384 1.68192ZM38.2159 2.44224C37.9624 2.32704 37.7147 2.21184 37.4613 2.10816L36.6951 1.80288L36.1479 3.21408L36.8737 3.50208C37.1099 3.60576 37.3461 3.7152 37.5823 3.81888L38.2159 2.44224ZM39.9902 3.32928C39.754 3.19104 39.5005 3.07584 39.2586 2.94912C39.0109 2.82816 38.7747 2.68992 38.5212 2.58048L37.876 3.95136C38.1122 4.05504 38.3427 4.18176 38.5731 4.29696C38.8035 4.41792 39.0397 4.52736 39.2644 4.65984L39.9902 3.32928ZM41.6896 4.35456L40.9925 3.91104L40.2782 3.50208L39.5293 4.82112L40.2033 5.20704L40.86 5.62752L41.6896 4.35456ZM43.3141 5.48928C43.1009 5.31648 42.8705 5.16672 42.6458 5.00544C42.4212 4.84992 42.2023 4.68288 41.9718 4.53312L41.1308 5.79456C41.3497 5.9328 41.5571 6.09408 41.7702 6.23808C41.9776 6.3936 42.1965 6.53184 42.3981 6.69888L43.3141 5.48928ZM54 27.0029C53.9942 22.9306 53.0668 18.841 51.2752 15.1718C50.3766 13.3402 49.2705 11.6122 47.9917 10.0224C46.7186 8.43264 45.2381 7.00416 43.6367 5.74272L42.7034 6.93504C44.2185 8.12736 45.6125 9.46944 46.8107 10.9728C48.0205 12.4704 49.0632 14.1062 49.91 15.8342C51.6036 19.296 52.4792 23.1494 52.485 26.9971H54V27.0029ZM45.3591 10.1894L44.8925 9.69984L44.4086 10.1664L44.8637 10.6387L45.3591 10.1894ZM45.9121 10.823L45.4685 10.3162L44.9674 10.7654L45.3994 11.2608L45.9121 10.823ZM46.4478 11.4682C46.3096 11.2896 46.1713 11.1168 46.0215 10.944L45.5089 11.376C45.6529 11.5373 45.7911 11.7101 45.9236 11.8829L46.4478 11.4682ZM46.9663 12.1306L46.5515 11.6006L46.0215 12.0154L46.4248 12.5338L46.9663 12.1306ZM47.4502 12.8102L47.0585 12.263L46.517 12.6605L46.8972 13.1962L47.4502 12.8102ZM47.9168 13.5072C47.7901 13.3171 47.6806 13.127 47.5481 12.9427L46.9951 13.3229C47.1276 13.4957 47.237 13.6915 47.358 13.8701L47.9168 13.5072ZM48.3661 14.2214C48.2567 14.0256 48.1242 13.8413 48.009 13.6512L47.4444 14.0141C47.5596 14.1984 47.6864 14.377 47.7901 14.5728L48.3661 14.2214ZM48.7809 14.9472L48.4468 14.3597L47.8649 14.6995L48.1933 15.2698L48.7809 14.9472ZM49.1726 15.6902C49.0689 15.4886 48.971 15.287 48.8615 15.0912L48.2739 15.4138C48.3776 15.6038 48.4756 15.8054 48.5735 15.9955L49.1726 15.6902ZM49.547 16.439C49.4606 16.2317 49.3512 16.0358 49.2533 15.8342L48.6542 16.1338C48.7521 16.3296 48.8558 16.5197 48.9422 16.7213L49.547 16.439ZM49.8927 17.2051L49.6162 16.5888L49.0056 16.871L49.2763 17.4701L49.8927 17.2051ZM50.2038 17.9827L49.956 17.3549L49.3339 17.6141L49.5758 18.2246L50.2038 17.9827ZM50.4975 18.7718L50.3881 18.455L50.2671 18.1382L49.6392 18.3802L49.7602 18.6854L49.8639 18.9965L50.4975 18.7718ZM50.7625 19.5667L50.5436 18.9274L49.91 19.1462L50.1231 19.7683L50.7625 19.5667ZM50.993 20.3731L50.8086 19.7222L50.1634 19.9181L50.342 20.5517L50.993 20.3731ZM51.2061 21.1853C51.1543 20.9664 51.1082 20.7475 51.039 20.5286L50.3881 20.7014C50.4515 20.9088 50.4975 21.1219 50.5494 21.335L51.2061 21.1853ZM51.3904 21.9974L51.2407 21.3408L50.584 21.4906L50.728 22.1299L51.3904 21.9974ZM51.5402 22.8269L51.4192 22.1645L50.7568 22.297L50.872 22.9421L51.5402 22.8269ZM51.667 23.6563C51.6381 23.4317 51.6151 23.207 51.569 22.9882L50.9065 23.0976C50.9526 23.3107 50.9699 23.5296 50.9987 23.7485L51.667 23.6563ZM51.7706 24.4858L51.69 23.8176L51.0218 23.904L51.1024 24.5549L51.7706 24.4858ZM51.834 25.3267L51.7822 24.6528L51.1139 24.7162L51.1658 25.3728L51.834 25.3267ZM51.8743 26.1619C51.8686 25.9373 51.8686 25.7126 51.8455 25.488L51.1715 25.5283C51.1946 25.7472 51.1946 25.9661 51.2003 26.185L51.8743 26.1619ZM51.8974 27.0029L51.8801 26.329L51.2061 26.3462L51.2234 27.0029H51.8974Z" fill="url(#paint0_linear_322_232)"/>
  <defs>
    <linearGradient id="paint0_linear_322_232" x1="2.01022" y1="65.3514" x2="48.7547" y2="-6.40346" gradientUnits="userSpaceOnUse">
      <stop offset="0.1843" stop-color="#4209B0"/>
      <stop offset="0.2669" stop-color="#DB8BF6"/>
      <stop offset="0.4088" stop-color="#FF91ED"/>
      <stop offset="0.5929" stop-color="#5644F7"/>
      <stop offset="0.8096" stop-color="#DB8BF6"/>
      <stop offset="1" stop-color="#2259C9"/>
    </linearGradient>
  </defs>
</svg>
